<svg xmlns="http://www.w3.org/2000/svg" width="130.501" height="130.501" viewBox="0 0 130.501 130.501">
  <g id="Detalle_taxis" transform="translate(-3283 -1150)">
    <g id="Rectangle_2365" data-name="Rectangle 2365" transform="translate(3283 1150)" fill="#fecb4e" stroke="rgba(0,0,0,0.06)" stroke-width="10">
      <rect width="130.501" height="130.501" rx="65" stroke="none"/>
      <rect x="5" y="5" width="120.501" height="120.501" rx="60" fill="none"/>
    </g>
    <path id="Path_7140" data-name="Path 7140" d="M0,0H47.393V47.393H0Z" transform="translate(3325 1192)" fill="none"/>
    <path id="Path_7141" data-name="Path 7141" d="M34.437,6.994A2.95,2.95,0,0,0,31.633,5H9.911a2.969,2.969,0,0,0-2.8,1.994L3,18.823v15.8A1.98,1.98,0,0,0,4.975,36.6H6.949A1.98,1.98,0,0,0,8.924,34.62V32.646h23.7V34.62A1.98,1.98,0,0,0,34.6,36.6H36.57a1.98,1.98,0,0,0,1.975-1.975v-15.8ZM10.6,8.949h20.32l2.133,6.141H8.47ZM34.6,28.7H6.949V18.823H34.6Z" transform="translate(3327.924 1196.873)" fill="#fff"/>
    <circle id="Ellipse_1040" data-name="Ellipse 1040" cx="2.962" cy="2.962" r="2.962" transform="translate(3336.848 1217.671)" fill="#fff"/>
    <circle id="Ellipse_1041" data-name="Ellipse 1041" cx="2.962" cy="2.962" r="2.962" transform="translate(3354.62 1217.671)" fill="#fff"/>
  </g>
</svg>
