<svg xmlns="http://www.w3.org/2000/svg" width="220.04" height="220.04" viewBox="0 0 220.04 220.04">
  <g id="Group_4901" data-name="Group 4901" transform="translate(-460 886)">
    <circle id="Ellipse_1022" data-name="Ellipse 1022" cx="110.02" cy="110.02" r="110.02" transform="translate(460 -886)" fill="#fff"/>
    <path id="Path_7009" data-name="Path 7009" d="M200,200Z" transform="translate(370.376 -964.619)" fill="#202020"/>
    <path id="Path_7010" data-name="Path 7010" d="M301.4,115.786A101.345,101.345,0,0,0,252.125,28.47L200,115.437Z" transform="translate(370.598 -892.029)" fill="#54caad" stroke="#fff" stroke-width="3"/>
    <path id="Path_7011" data-name="Path 7011" d="M152.135,101.4,204.26,14.428a101.355,101.355,0,0,0-101.35-1.693Z" transform="translate(417.882 -877.988)" fill="#fecb4e" stroke="#fff" stroke-width="3"/>
    <path id="Path_7012" data-name="Path 7012" d="M200,200l49.225,88.66A101.493,101.493,0,0,0,301.4,200.35Z" transform="translate(370.598 -975.407)" fill="#a39fff" stroke="#fff" stroke-width="3"/>
    <path id="Path_7013" data-name="Path 7013" d="M149.315,200,97.19,286.967a101.355,101.355,0,0,0,101.35,1.693Z" transform="translate(420.668 -975.407)" fill="#54caad" stroke="#fff" stroke-width="3"/>
    <path id="Path_7014" data-name="Path 7014" d="M101.4,199.66,0,199.31a101.345,101.345,0,0,0,49.276,87.316Z" transform="translate(468.001 -975.067)" fill="#618eeb" stroke="#fff" stroke-width="3"/>
    <path id="Path_7015" data-name="Path 7015" d="M52.176,25.13A101.492,101.492,0,0,0,0,113.44l101.4.35Z" transform="translate(468.001 -890.383)" fill="#54caad" stroke="#fff" stroke-width="3"/>
    <path id="Path_7142" data-name="Path 7142" d="M0,0H24V24H0Z" transform="translate(651.464 -741.788) rotate(120)" fill="none"/>
    <path id="Path_7143" data-name="Path 7143" d="M15.55,13a1.991,1.991,0,0,0,1.75-1.03l3.58-6.49A1,1,0,0,0,20.01,4H5.21L4.27,2H1V4H3l3.6,7.59L5.25,14.03A2,2,0,0,0,7,17H19V15H7l1.1-2ZM6.16,6H18.31l-2.76,5H8.53ZM7,18a2,2,0,1,0,2,2A2,2,0,0,0,7,18Zm10,0a2,2,0,1,0,2,2A2,2,0,0,0,17,18Z" transform="translate(651.464 -741.788) rotate(120)" fill="#fff"/>
    <path id="Path_7138" data-name="Path 7138" d="M16.638,21.158H18.16a1.515,1.515,0,0,0,1.494-1.338L21.167,4.713H16.583V1H14.778V4.713H10.222L10.5,6.858a9.4,9.4,0,0,1,3.914,2.072,6.316,6.316,0,0,1,2.228,4.849v7.379ZM1,20.241v-.907H14.777v.907a.921.921,0,0,1-.926.917H1.926A.921.921,0,0,1,1,20.241Zm13.777-6.417C14.777,6.491,1,6.491,1,13.824ZM1.018,15.667h13.75V17.5H1.018Z" transform="translate(502.256 -723.622) rotate(-120)" fill="#fff"/>
    <path id="Path_7139" data-name="Path 7139" d="M0,0H22V22H0Z" transform="translate(502.286 -723.736) rotate(-120)" fill="none"/>
    <path id="Path_7140" data-name="Path 7140" d="M0,0H24V24H0Z" transform="translate(558.875 -863.396)" fill="none"/>
    <path id="Path_7141" data-name="Path 7141" d="M18.92,6.01A1.494,1.494,0,0,0,17.5,5H6.5A1.5,1.5,0,0,0,5.08,6.01L3,12v8a1,1,0,0,0,1,1H5a1,1,0,0,0,1-1V19H18v1a1,1,0,0,0,1,1h1a1,1,0,0,0,1-1V12ZM6.85,7H17.14l1.08,3.11H5.77ZM19,17H5V12H19Z" transform="translate(558.875 -863.396)" fill="#fff"/>
    <circle id="Ellipse_1040" data-name="Ellipse 1040" cx="1.5" cy="1.5" r="1.5" transform="translate(564.875 -850.396)" fill="#fff"/>
    <circle id="Ellipse_1041" data-name="Ellipse 1041" cx="1.5" cy="1.5" r="1.5" transform="translate(573.875 -850.396)" fill="#fff"/>
    <g id="Ellipse_1043" data-name="Ellipse 1043" transform="translate(468 -878)" fill="none" stroke="#707070" stroke-width="10" opacity="0.317">
      <circle cx="102" cy="102" r="102" stroke="none"/>
      <circle cx="102" cy="102" r="97" fill="none"/>
    </g>
    <text id="_10" data-name="+10" transform="translate(570.32 -713.051) rotate(179)" fill="#fff" font-size="14" font-family="HelveticaNeue-Medium, Helvetica Neue" font-weight="500"><tspan x="-11.984" y="0">+10</tspan></text>
    <text id="_800" data-name="+800" transform="translate(514.743 -805.372) rotate(-61)" fill="#fff" font-size="14" font-family="HelveticaNeue-Medium, Helvetica Neue" font-weight="500"><tspan x="-15.876" y="0">+800</tspan></text>
    <text id="_1000" data-name="+1000" transform="translate(625.936 -810.234) rotate(59)" fill="#fff" font-size="14" font-family="HelveticaNeue-Medium, Helvetica Neue" font-weight="500"><tspan x="-19.768" y="0">+1000</tspan></text>
  </g>
</svg>
