<svg xmlns="http://www.w3.org/2000/svg" width="51.485" height="51.485" viewBox="0 0 51.485 51.485">
  <g id="Botón_tiendas" transform="translate(-3037.67 -1460)">
    <g id="Rectangle_2454" data-name="Rectangle 2454" transform="translate(3037.67 1460)" fill="#a39fff" stroke="rgba(0,0,0,0.06)" stroke-width="2">
      <rect width="51.485" height="51.485" rx="6" stroke="none"/>
      <rect x="1" y="1" width="49.485" height="49.485" rx="5" fill="none"/>
    </g>
    <path id="Path_7142" data-name="Path 7142" d="M0,0H24V24H0Z" transform="translate(3051 1474)" fill="none"/>
    <path id="Path_7143" data-name="Path 7143" d="M15.55,13a1.991,1.991,0,0,0,1.75-1.03l3.58-6.49A1,1,0,0,0,20.01,4H5.21L4.27,2H1V4H3l3.6,7.59L5.25,14.03A2,2,0,0,0,7,17H19V15H7l1.1-2ZM6.16,6H18.31l-2.76,5H8.53ZM7,18a2,2,0,1,0,2,2A2,2,0,0,0,7,18Zm10,0a2,2,0,1,0,2,2A2,2,0,0,0,17,18Z" transform="translate(3051 1474)" fill="#fff"/>
  </g>
</svg>
