<svg xmlns="http://www.w3.org/2000/svg" width="130.501" height="130.501" viewBox="0 0 130.501 130.501">
  <g id="Detalle_fastfood" transform="translate(-2820 -1150)">
    <g id="Rectangle_2365" data-name="Rectangle 2365" transform="translate(2820 1150)" fill="#618eeb" stroke="rgba(0,0,0,0.06)" stroke-width="10">
      <rect width="130.501" height="130.501" rx="65" stroke="none"/>
      <rect x="5" y="5" width="120.501" height="120.501" rx="60" fill="none"/>
    </g>
    <path id="Path_7138" data-name="Path 7138" d="M29.786,38.1h2.8a2.788,2.788,0,0,0,2.75-2.464L38.122,7.834H29.685V1H26.361V7.834H17.975l.506,3.948A17.3,17.3,0,0,1,25.686,15.6c2.43,2.4,4.1,4.876,4.1,8.926V38.1ZM1,36.418v-1.67H26.361v1.67a1.7,1.7,0,0,1-1.7,1.687H2.7A1.7,1.7,0,0,1,1,36.418ZM26.361,24.606c0-13.5-25.361-13.5-25.361,0ZM1.034,28h25.31v3.375H1.034Z" transform="translate(2865.687 1195.687)" fill="#fff"/>
    <path id="Path_7139" data-name="Path 7139" d="M0,0H40.5V40.5H0Z" transform="translate(2865 1195)" fill="none"/>
  </g>
</svg>
